<svg id="Layer_1" enable-background="new 0 0 512.769 512.769" height="512" viewBox="0 0 512.769 512.769" width="512" xmlns="http://www.w3.org/2000/svg"><path d="m511.951 131.238v263.118h-511.951v-79.947l293.351-291.921c28.091-27.954 73.306-28.539 102.111-1.321z" fill="#a2d0ff"/><path d="m511.951 157.406c-74.307-33.432-39.547 21.149-135.021 31.979-64.327 7.297-143.846-29.179-193.863-57.151l-183.067 182.174v79.947h511.951z" fill="#8bc4ff"/><path d="m395.461 21.166c-28.805-27.218-74.02-26.632-102.111 1.321l-65.492 65.173 12.079 7.199 85.517-19.277 91.367 37.899 40.52-33.843z" fill="#e8f3ff"/><path d="m.818 232.254v119.374h511.951v-38.201c-21.792-15.22-286.072-199.799-276.081-192.821-39.416-27.529-92.746-23.591-127.691 9.429z" fill="#a2d0ff"/><path d="m236.688 120.606c-39.416-27.529-92.746-23.591-127.691 9.429l-39.962 37.76 42.659 35.629 74.949-31.088 70.15 15.813 41.332-24.634z" fill="#e8f3ff"/><path d="m279.12 241.018c-51.031 14.306-73.358 44.168-225.389 30.347-20.968-1.906-38.411-3.285-52.913-4.249v84.512h511.951v-38.2c-12.988-9.071-90.039-62.885-102.817-71.81-59.078-4.217-111.937-5.897-130.832-.6z" fill="#8bc4ff"/><path d="m512.769 313.427v198.211h-511.951v-91.59c161.646-103.137 329.582-133.786 511.951-106.621z" fill="#9bd65e"/><path d="m512.769 313.427c-78.033-11.624-153.421-12.651-226.807-1.955 15.932 8.063 42.765 16.382 89.183 21.555 50.979 5.681 99.486-1.307 137.624-10.805z" fill="#aced70"/><path d="m512.769 389.235c-60.387-10.483-242.511-43.125-300.997-62.738-71.884 18.754-141.993 49.55-210.955 93.552v91.589h511.951v-122.403z" fill="#91c656"/><path d="m.818 321.343v190.295h511.951v-38.201c-162.745-83.081-331.694-140.75-511.951-152.094z" fill="#9bd65e"/><path d="m.818 321.343v27.502c13.683 2.496 30.375 6.304 50.786 11.824 116.089 31.401 221.939 45.76 223.068 13.367-88.686-28.208-179.727-46.769-273.854-52.693z" fill="#aced70"/><path d="m285.963 480.217c-46.615 21.205-237.432-45.857-285.145-61.348v92.769h438.839s-133.958-40.4-153.694-31.421z" fill="#91c656"/></svg>